<?xml version="1.0" encoding="UTF-8"?>
<!DOCTYPE svg PUBLIC "-//W3C//DTD SVG 1.1//EN" "http://www.w3.org/Graphics/SVG/1.1/DTD/svg11.dtd">
<svg version="1.1" xmlns="http://www.w3.org/2000/svg" xmlns:xlink="http://www.w3.org/1999/xlink" x="0" y="0" width="319.995" height="245.325" viewBox="0, 0, 319.995, 245.325">
  <g id="g2">
    <g id="g844">
      <g id="path834">
        <path d="M297.489,176.775 C297.489,176.775 299.739,186.375 298.839,190.875 C298.089,195.375 295.839,198.075 295.839,198.075 L291.789,198.075 C291.789,198.075 293.289,192.975 292.989,189.375 C292.689,185.775 291.639,179.325 290.889,176.925 z" fill="#808080"/>
        <path d="M297.489,176.775 C297.489,176.775 299.739,186.375 298.839,190.875 C298.089,195.375 295.839,198.075 295.839,198.075 L291.789,198.075 C291.789,198.075 293.289,192.975 292.989,189.375 C292.689,185.775 291.639,179.325 290.889,176.925 z" fill-opacity="0" stroke="#000000" stroke-width="2.25" stroke-linecap="round" stroke-linejoin="round" stroke-miterlimit="10"/>
      </g>
      <g id="path836">
        <path d="M292.389,175.575 C292.389,175.575 294.489,188.325 294.039,192.075 C293.589,195.825 292.389,199.575 292.389,199.575 L280.539,198.675 L279.639,177.525 z" fill="#666666"/>
        <path d="M292.389,175.575 C292.389,175.575 294.489,188.325 294.039,192.075 C293.589,195.825 292.389,199.575 292.389,199.575 L280.539,198.675 L279.639,177.525 z" fill-opacity="0" stroke="#000000" stroke-width="2.25" stroke-linecap="round" stroke-linejoin="round" stroke-miterlimit="10"/>
      </g>
      <g id="path838">
        <path d="M259.689,129.225 C263.289,128.925 284.589,125.475 301.089,132.375 C309.639,135.975 313.239,143.325 314.139,149.025 C315.039,153.825 316.839,169.575 312.639,174.075 C307.839,179.025 299.439,179.925 292.989,180.525 C291.039,180.675 281.589,180.375 281.589,180.375 L259.989,128.475" fill="#808080"/>
        <path d="M259.689,129.225 C263.289,128.925 284.589,125.475 301.089,132.375 C309.639,135.975 313.239,143.325 314.139,149.025 C315.039,153.825 316.839,169.575 312.639,174.075 C307.839,179.025 299.439,179.925 292.989,180.525 C291.039,180.675 281.589,180.375 281.589,180.375 L259.989,128.475" fill-opacity="0" stroke="#000000" stroke-width="2.25" stroke-linecap="round" stroke-linejoin="round" stroke-miterlimit="10"/>
      </g>
      <g id="path840">
        <path d="M262.539,129.375 C268.089,128.025 290.589,129.075 297.039,132.075 C303.489,135.075 305.139,139.875 306.639,146.175 C307.689,150.525 309.189,164.175 306.039,173.025 C303.189,177.375 295.389,180.975 285.489,179.625 L279.339,179.025 z" fill="#8091B3"/>
        <path d="M262.539,129.375 C268.089,128.025 290.589,129.075 297.039,132.075 C303.489,135.075 305.139,139.875 306.639,146.175 C307.689,150.525 309.189,164.175 306.039,173.025 C303.189,177.375 295.389,180.975 285.489,179.625 L279.339,179.025 z" fill-opacity="0" stroke="#000000" stroke-width="2.25" stroke-linecap="round" stroke-linejoin="round" stroke-miterlimit="10"/>
      </g>
      <path d="M259.239,131.325 C264.789,129.975 287.289,130.875 293.739,133.725 C300.189,136.575 301.839,141.075 303.189,147.075 C304.239,151.275 305.739,164.325 302.439,172.725 C299.589,176.925 291.789,180.375 281.889,179.025 L275.739,178.425 z" fill="#687EA7" id="path842"/>
    </g>
    <g id="path846">
      <path d="M183.639,85.575 L176.739,72.675 C174.639,28.875 204.639,13.575 217.389,10.875 C221.289,9.825 226.839,9.675 229.239,9.675 C235.689,6.675 283.389,1.725 298.539,47.025 C302.439,58.875 303.939,67.275 306.939,72.225 C309.939,77.175 319.839,85.125 318.789,93.075 C317.739,101.025 313.389,104.475 310.839,107.475 C311.889,109.875 303.039,128.775 273.039,130.125 L185.139,86.175" fill="#4D1F03"/>
      <path d="M183.639,85.575 L176.739,72.675 C174.639,28.875 204.639,13.575 217.389,10.875 C221.289,9.825 226.839,9.675 229.239,9.675 C235.689,6.675 283.389,1.725 298.539,47.025 C302.439,58.875 303.939,67.275 306.939,72.225 C309.939,77.175 319.839,85.125 318.789,93.075 C317.739,101.025 313.389,104.475 310.839,107.475 C311.889,109.875 303.039,128.775 273.039,130.125 L185.139,86.175" fill-opacity="0" stroke="#000000" stroke-width="2.25" stroke-linecap="round" stroke-linejoin="round" stroke-miterlimit="10"/>
    </g>
    <g id="path848">
      <path d="M183.189,68.475 C177.939,60.975 170.289,61.725 170.589,74.775 C170.889,87.825 179.139,95.325 181.089,95.175 C183.189,95.175 183.189,68.475 183.189,68.475 z" fill="#FCB692"/>
      <path d="M183.189,68.475 C177.939,60.975 170.289,61.725 170.589,74.775 C170.889,87.825 179.139,95.325 181.089,95.175 C183.189,95.175 183.189,68.475 183.189,68.475 z" fill-opacity="0" stroke="#000000" stroke-width="2.25" stroke-linecap="round" stroke-linejoin="round" stroke-miterlimit="10"/>
    </g>
    <g id="path850">
      <path d="M260.589,125.775 C265.389,127.875 267.639,125.775 281.589,141.675 C284.739,145.275 285.189,185.325 285.189,185.325 L245.589,192.525 L225.339,193.425 C225.339,193.425 229.389,156.075 228.939,154.275 C228.489,152.475 245.739,125.325 249.789,125.775 C253.839,126.225 260.589,125.775 260.589,125.775 z" fill="#80C41C"/>
      <path d="M260.589,125.775 C265.389,127.875 267.639,125.775 281.589,141.675 C284.739,145.275 285.189,185.325 285.189,185.325 L245.589,192.525 L225.339,193.425 C225.339,193.425 229.389,156.075 228.939,154.275 C228.489,152.475 245.739,125.325 249.789,125.775 C253.839,126.225 260.589,125.775 260.589,125.775 z" fill-opacity="0" stroke="#000000" stroke-width="2.25" stroke-linecap="round" stroke-linejoin="round" stroke-miterlimit="10"/>
    </g>
    <g id="path852">
      <path d="M277.239,62.325 C261.339,51.975 246.039,36.525 241.539,28.725 C241.989,33.225 247.989,52.425 246.489,53.475 C240.489,51.975 232.089,45.075 231.639,42.525 C232.089,44.475 233.139,47.475 231.639,49.875 C222.189,44.475 217.239,29.625 219.339,21.225 C204.039,26.625 194.889,34.425 191.139,39.975 C188.139,44.475 181.239,62.325 180.189,79.575 C178.989,99.375 193.089,128.625 243.039,128.625 L245.589,133.125 C250.539,130.125 272.439,124.275 283.689,94.575 C286.239,101.925 294.039,100.575 298.089,84.225 C301.989,67.875 293.589,54.975 286.239,65.925 C285.939,72.225 282.789,80.625 279.939,84.075 C280.239,80.025 278.589,64.725 277.239,62.325 z" fill="#FCB692"/>
      <path d="M277.239,62.325 C261.339,51.975 246.039,36.525 241.539,28.725 C241.989,33.225 247.989,52.425 246.489,53.475 C240.489,51.975 232.089,45.075 231.639,42.525 C232.089,44.475 233.139,47.475 231.639,49.875 C222.189,44.475 217.239,29.625 219.339,21.225 C204.039,26.625 194.889,34.425 191.139,39.975 C188.139,44.475 181.239,62.325 180.189,79.575 C178.989,99.375 193.089,128.625 243.039,128.625 L245.589,133.125 C250.539,130.125 272.439,124.275 283.689,94.575 C286.239,101.925 294.039,100.575 298.089,84.225 C301.989,67.875 293.589,54.975 286.239,65.925 C285.939,72.225 282.789,80.625 279.939,84.075 C280.239,80.025 278.589,64.725 277.239,62.325 z" fill-opacity="0" stroke="#000000" stroke-width="2.25" stroke-linecap="round" stroke-linejoin="round" stroke-miterlimit="10"/>
    </g>
    <path d="M220.689,84.075 C223.539,88.575 242.739,87.075 243.339,80.175" fill-opacity="0" stroke="#000000" stroke-width="2.25" stroke-linecap="round" stroke-linejoin="round" stroke-miterlimit="10" id="path854"/>
    <path d="M246.939,126.075 C248.889,126.075 255.339,125.025 263.289,120.675" fill-opacity="0" stroke="#000000" stroke-width="2.25" stroke-linecap="round" stroke-linejoin="round" stroke-miterlimit="10" id="path856"/>
    <path d="M226.239,66.675 C220.839,69.075 220.239,67.725 218.739,67.125 C217.689,70.125 220.239,72.525 221.739,73.125" fill-opacity="0" stroke="#000000" stroke-width="2.25" stroke-linecap="round" stroke-linejoin="round" stroke-miterlimit="10" id="path858"/>
    <path d="M294.489,73.125 C292.989,66.225 289.539,68.175 287.589,77.025 C287.589,77.025 291.489,78.525 291.039,80.025 C290.589,81.525 287.139,82.575 287.139,84.975" fill-opacity="0" stroke="#000000" stroke-width="2.25" stroke-linecap="round" stroke-linejoin="round" stroke-miterlimit="10" id="path860"/>
    <path d="M174.339,76.575 C173.589,72.375 175.689,68.325 180.039,72.525" fill-opacity="0" stroke="#000000" stroke-width="2.25" stroke-linecap="round" stroke-linejoin="round" stroke-miterlimit="10" id="path862"/>
    <path d="M201.939,39.075 C199.539,35.175 195.489,39.525 195.039,48.525" fill-opacity="0" stroke="#000000" stroke-width="2.25" stroke-linecap="round" stroke-linejoin="round" stroke-miterlimit="10" id="path864"/>
    <path d="M255.189,38.025 C257.139,33.075 264.039,36.525 264.789,49.875" fill-opacity="0" stroke="#000000" stroke-width="2.25" stroke-linecap="round" stroke-linejoin="round" stroke-miterlimit="10" id="path866"/>
    <path d="M206.739,64.725 C206.739,67.125 204.789,69.225 202.239,69.225 C199.839,69.225 197.739,67.275 197.739,64.725 C197.739,62.325 199.689,60.225 202.239,60.225 C204.789,60.375 206.739,62.325 206.739,64.725 z" fill="#000000" id="path868"/>
    <path d="M256.389,63.825 C256.389,66.225 254.439,68.325 251.889,68.325 C249.489,68.325 247.389,66.375 247.389,63.825 C247.389,61.425 249.339,59.325 251.889,59.325 C254.439,59.325 256.389,61.275 256.389,63.825 z" fill="#000000" id="path870"/>
    <path d="M205.989,77.325 C205.839,81.075 201.039,84.075 195.189,83.775 C189.489,83.475 184.989,80.175 185.289,76.275 C185.439,72.525 190.239,69.525 196.089,69.825 C201.789,70.275 206.289,73.575 205.989,77.325 z" fill="#FB8360" id="path872"/>
    <path d="M270.789,75.975 C270.639,79.725 265.689,82.725 259.989,82.425 C254.289,82.125 249.789,78.825 250.089,74.925 C250.239,71.175 255.189,68.175 260.889,68.475 C266.439,68.775 270.939,72.075 270.789,75.975 z" fill="#FB8360" id="path874"/>
    <g id="g886">
      <g id="path876">
        <path d="M34.389,199.725 C34.389,199.725 33.189,209.475 34.389,213.975 C35.589,218.475 37.989,220.875 37.989,220.875 L42.039,220.425 C42.039,220.425 39.939,215.625 39.939,211.875 C39.939,208.275 40.389,201.675 40.689,199.275 z" fill="#808080"/>
        <path d="M34.389,199.725 C34.389,199.725 33.189,209.475 34.389,213.975 C35.589,218.475 37.989,220.875 37.989,220.875 L42.039,220.425 C42.039,220.425 39.939,215.625 39.939,211.875 C39.939,208.275 40.389,201.675 40.689,199.275 z" fill-opacity="0" stroke="#000000" stroke-width="2.25" stroke-linecap="round" stroke-linejoin="round" stroke-miterlimit="10"/>
      </g>
      <g id="path878">
        <path d="M39.189,198.075 C39.189,198.075 38.439,210.975 39.189,214.725 C39.939,218.325 41.589,222.075 41.589,222.075 L53.289,219.975 L52.089,198.975 z" fill="#666666"/>
        <path d="M39.189,198.075 C39.189,198.075 38.439,210.975 39.189,214.725 C39.939,218.325 41.589,222.075 41.589,222.075 L53.289,219.975 L52.089,198.975 z" fill-opacity="0" stroke="#000000" stroke-width="2.25" stroke-linecap="round" stroke-linejoin="round" stroke-miterlimit="10"/>
      </g>
      <g id="path880">
        <path d="M67.239,148.725 C63.639,148.725 42.189,147.525 26.289,156.075 C18.039,160.425 15.339,168.225 14.889,173.925 C14.589,178.725 14.289,194.775 18.939,198.675 C24.189,203.175 32.739,203.175 39.189,203.175 C41.289,203.175 50.589,201.975 50.589,201.975 L66.939,148.275" fill="#808080"/>
        <path d="M67.239,148.725 C63.639,148.725 42.189,147.525 26.289,156.075 C18.039,160.425 15.339,168.225 14.889,173.925 C14.589,178.725 14.289,194.775 18.939,198.675 C24.189,203.175 32.739,203.175 39.189,203.175 C41.289,203.175 50.589,201.975 50.589,201.975 L66.939,148.275" fill-opacity="0" stroke="#000000" stroke-width="2.25" stroke-linecap="round" stroke-linejoin="round" stroke-miterlimit="10"/>
      </g>
      <g id="path882">
        <path d="M64.389,149.175 C58.689,148.425 36.489,151.575 30.339,155.175 C24.339,158.775 22.989,163.725 22.239,170.175 C21.639,174.675 21.489,188.325 25.539,196.875 C28.839,200.925 36.939,203.775 46.539,201.375 L52.539,200.175 z" fill="#8091B3"/>
        <path d="M64.389,149.175 C58.689,148.425 36.489,151.575 30.339,155.175 C24.339,158.775 22.989,163.725 22.239,170.175 C21.639,174.675 21.489,188.325 25.539,196.875 C28.839,200.925 36.939,203.775 46.539,201.375 L52.539,200.175 z" fill-opacity="0" stroke="#000000" stroke-width="2.25" stroke-linecap="round" stroke-linejoin="round" stroke-miterlimit="10"/>
      </g>
      <path d="M67.839,150.675 C62.139,149.925 39.939,152.925 33.789,156.525 C27.639,159.975 26.439,164.625 25.689,170.775 C25.089,175.125 24.939,188.175 28.989,196.275 C32.289,200.175 40.389,202.875 49.989,200.475 L56.139,199.275 z" fill="#687EA7" id="path884"/>
    </g>
    <g id="path888">
      <path d="M65.739,142.425 C65.739,142.425 56.289,152.925 56.289,154.275 C56.289,155.625 57.939,169.125 57.639,171.525 C57.339,173.925 63.639,214.425 64.689,216.375 C65.739,218.475 103.839,213.675 105.789,213.675 C107.889,213.675 110.589,204.525 110.139,203.475 C109.839,202.425 106.089,197.775 106.089,196.425 C106.089,195.075 106.839,190.425 106.839,190.425 L112.239,158.325 C112.239,158.325 103.089,140.475 101.739,140.025 C100.389,139.575 65.739,142.425 65.739,142.425 z" fill="#FFFFFF"/>
      <path d="M65.739,142.425 C65.739,142.425 56.289,152.925 56.289,154.275 C56.289,155.625 57.939,169.125 57.639,171.525 C57.339,173.925 63.639,214.425 64.689,216.375 C65.739,218.475 103.839,213.675 105.789,213.675 C107.889,213.675 110.589,204.525 110.139,203.475 C109.839,202.425 106.089,197.775 106.089,196.425 C106.089,195.075 106.839,190.425 106.839,190.425 L112.239,158.325 C112.239,158.325 103.089,140.475 101.739,140.025 C100.389,139.575 65.739,142.425 65.739,142.425 z" fill-opacity="0" stroke="#000000" stroke-width="2.25" stroke-linecap="round" stroke-linejoin="round" stroke-miterlimit="10"/>
    </g>
    <path d="M27.639,220.425 C38.589,216.675 34.539,218.625 301.689,192.525 L291.639,218.925 L74.589,245.325 z" fill="#C4A854" id="path890"/>
    <g id="path892">
      <path d="M69.039,196.725 C69.039,197.775 74.439,210.975 74.439,212.925 C74.439,212.925 49.539,216.675 48.189,215.625 C46.839,214.575 46.539,210.825 46.839,208.875 C46.239,207.825 43.839,206.175 43.089,201.375 C42.339,196.575 48.189,159.525 48.489,158.175 C48.789,156.825 51.789,151.725 53.589,150.675 C54.939,148.575 65.439,138.225 66.789,137.175 L97.839,135.825 C98.889,136.125 108.039,142.275 111.339,147.675 C112.989,149.775 122.139,176.325 122.739,178.125 C123.789,178.875 128.439,180.825 126.489,183.525 C124.389,186.225 129.489,189.975 129.489,189.975 L114.939,203.775 C114.939,203.775 107.139,195.675 106.839,190.275 C107.889,182.475 108.939,162.225 108.939,158.925 C108.939,155.625 107.889,151.575 107.889,151.575 C107.889,151.575 102.789,145.425 100.089,143.475 C98.439,146.475 93.039,149.175 91.239,149.475 C90.939,150.825 92.589,165.075 91.539,167.025 C91.539,167.025 87.489,168.975 85.839,167.025 L86.139,150.525 C86.139,150.525 70.539,151.875 67.239,145.425 L60.189,152.175 C61.239,153.525 64.989,159.225 65.289,163.275 C65.589,167.325 64.239,187.275 64.989,188.175 C65.589,189.225 67.389,189.225 67.689,190.275 C67.989,191.325 65.589,194.025 65.589,194.025 z" fill="#CB2F20"/>
      <path d="M69.039,196.725 C69.039,197.775 74.439,210.975 74.439,212.925 C74.439,212.925 49.539,216.675 48.189,215.625 C46.839,214.575 46.539,210.825 46.839,208.875 C46.239,207.825 43.839,206.175 43.089,201.375 C42.339,196.575 48.189,159.525 48.489,158.175 C48.789,156.825 51.789,151.725 53.589,150.675 C54.939,148.575 65.439,138.225 66.789,137.175 L97.839,135.825 C98.889,136.125 108.039,142.275 111.339,147.675 C112.989,149.775 122.139,176.325 122.739,178.125 C123.789,178.875 128.439,180.825 126.489,183.525 C124.389,186.225 129.489,189.975 129.489,189.975 L114.939,203.775 C114.939,203.775 107.139,195.675 106.839,190.275 C107.889,182.475 108.939,162.225 108.939,158.925 C108.939,155.625 107.889,151.575 107.889,151.575 C107.889,151.575 102.789,145.425 100.089,143.475 C98.439,146.475 93.039,149.175 91.239,149.475 C90.939,150.825 92.589,165.075 91.539,167.025 C91.539,167.025 87.489,168.975 85.839,167.025 L86.139,150.525 C86.139,150.525 70.539,151.875 67.239,145.425 L60.189,152.175 C61.239,153.525 64.989,159.225 65.289,163.275 C65.589,167.325 64.239,187.275 64.989,188.175 C65.589,189.225 67.389,189.225 67.689,190.275 C67.989,191.325 65.589,194.025 65.589,194.025 z" fill-opacity="0" stroke="#000000" stroke-width="2.25" stroke-linecap="round" stroke-linejoin="round" stroke-miterlimit="10"/>
    </g>
    <g id="path894">
      <path d="M70.089,137.625 C71.439,142.425 75.789,146.775 85.989,145.725 C96.189,144.675 97.389,140.025 97.839,135.975 z" fill="#FCB692"/>
      <path d="M70.089,137.625 C71.439,142.425 75.789,146.775 85.989,145.725 C96.189,144.675 97.389,140.025 97.839,135.975 z" fill-opacity="0" stroke="#000000" stroke-width="2.25" stroke-linecap="round" stroke-linejoin="round" stroke-miterlimit="10"/>
    </g>
    <path d="M90.339,154.125 C90.339,155.175 89.439,156.075 88.239,156.075 C87.189,156.075 86.139,155.175 86.139,154.125 C86.139,153.075 87.039,152.025 88.239,152.025 C89.439,152.175 90.339,153.075 90.339,154.125 z" fill-opacity="0" stroke="#000000" stroke-width="2.25" stroke-linecap="round" stroke-linejoin="round" stroke-miterlimit="10" id="path896"/>
    <path d="M85.989,145.725 L85.239,150.075" fill-opacity="0" stroke="#000000" stroke-width="2.25" stroke-linecap="round" stroke-linejoin="round" stroke-miterlimit="10" id="line898"/>
    <g id="g904">
      <g id="path900">
        <path d="M61.689,218.475 C61.689,218.475 59.589,222.525 60.639,225.225 C61.689,227.925 63.639,230.925 67.689,231.975 C71.739,233.025 92.289,234.675 95.739,231.975 C99.039,229.275 100.539,225.975 100.539,224.625 C98.889,219.825 90.339,210.075 78.189,210.375 C74.139,210.375 65.739,210.675 61.689,218.475 z" fill="#FFFFFF"/>
        <path d="M61.689,218.475 C61.689,218.475 59.589,222.525 60.639,225.225 C61.689,227.925 63.639,230.925 67.689,231.975 C71.739,233.025 92.289,234.675 95.739,231.975 C99.039,229.275 100.539,225.975 100.539,224.625 C98.889,219.825 90.339,210.075 78.189,210.375 C74.139,210.375 65.739,210.675 61.689,218.475 z" fill-opacity="0" stroke="#000000" stroke-width="2.25" stroke-linecap="round" stroke-linejoin="round" stroke-miterlimit="10"/>
      </g>
      <path d="M95.739,230.625 C94.089,227.625 85.539,222.825 84.639,222.225 C83.589,221.475 87.639,218.475 87.639,218.475 C90.639,218.775 97.839,223.275 99.789,226.275" fill-opacity="0" stroke="#000000" stroke-width="2.25" stroke-linecap="round" stroke-linejoin="round" stroke-miterlimit="10" id="path902"/>
    </g>
    <g id="g916">
      <g id="path906">
        <path d="M76.689,200.775 C80.439,200.475 84.039,203.175 84.789,204.075 C85.389,205.125 84.489,208.425 84.489,209.475 C84.489,210.525 76.689,200.775 76.689,200.775 z" fill="#FCB692"/>
        <path d="M76.689,200.775 C80.439,200.475 84.039,203.175 84.789,204.075 C85.389,205.125 84.489,208.425 84.489,209.475 C84.489,210.525 76.689,200.775 76.689,200.775 z" fill-opacity="0" stroke="#000000" stroke-width="2.25" stroke-linecap="round" stroke-linejoin="round" stroke-miterlimit="10"/>
      </g>
      <g id="path908">
        <path d="M66.789,199.575 C72.489,199.275 75.039,200.325 77.889,201.975 C81.939,204.375 86.289,210.375 85.689,213.825 C85.089,217.125 82.389,215.175 81.339,214.575 C82.389,216.075 82.089,218.625 80.589,219.225 C79.239,219.975 76.539,217.875 75.189,217.275 C76.239,218.775 75.489,221.625 73.839,221.625 C72.189,221.625 68.739,219.975 68.139,218.925 C67.389,217.875 63.789,215.925 63.789,215.925 C63.789,215.925 67.539,219.225 66.789,221.625 C66.039,224.025 62.739,222.975 60.639,221.325 C59.289,220.125 59.439,221.175 56.139,217.575 C56.139,217.575 51.339,214.875 52.239,209.925 C52.839,205.725 60.039,200.175 66.789,199.575 z" fill="#FCB692"/>
        <path d="M66.789,199.575 C72.489,199.275 75.039,200.325 77.889,201.975 C81.939,204.375 86.289,210.375 85.689,213.825 C85.089,217.125 82.389,215.175 81.339,214.575 C82.389,216.075 82.089,218.625 80.589,219.225 C79.239,219.975 76.539,217.875 75.189,217.275 C76.239,218.775 75.489,221.625 73.839,221.625 C72.189,221.625 68.739,219.975 68.139,218.925 C67.389,217.875 63.789,215.925 63.789,215.925 C63.789,215.925 67.539,219.225 66.789,221.625 C66.039,224.025 62.739,222.975 60.639,221.325 C59.289,220.125 59.439,221.175 56.139,217.575 C56.139,217.575 51.339,214.875 52.239,209.925 C52.839,205.725 60.039,200.175 66.789,199.575 z" fill-opacity="0" stroke="#000000" stroke-width="2.25" stroke-linecap="round" stroke-linejoin="round" stroke-miterlimit="10"/>
      </g>
      <path d="M60.939,213.375 C60.939,213.375 62.289,214.125 63.639,215.775" fill-opacity="0" stroke="#000000" stroke-width="2.25" stroke-linecap="round" stroke-linejoin="round" stroke-miterlimit="10" id="path910"/>
      <path d="M66.039,209.925 C67.389,210.675 70.689,212.625 70.689,212.625 C70.689,212.625 74.439,215.625 75.039,216.975" fill-opacity="0" stroke="#000000" stroke-width="2.25" stroke-linecap="round" stroke-linejoin="round" stroke-miterlimit="10" id="path912"/>
      <path d="M71.139,205.275 C73.239,206.025 76.839,208.575 77.889,209.325 C78.939,209.925 81.189,213.075 81.189,214.425" fill-opacity="0" stroke="#000000" stroke-width="2.25" stroke-linecap="round" stroke-linejoin="round" stroke-miterlimit="10" id="path914"/>
    </g>
    <g id="g926">
      <g id="path918">
        <path d="M125.139,202.125 C125.739,202.425 126.039,202.875 126.639,203.325 C129.639,205.425 128.289,209.175 128.289,209.175 C128.289,209.175 125.439,209.775 121.989,208.125 C119.889,207.075 113.589,204.075 112.539,201.375 C112.239,197.625 114.489,193.575 118.539,191.625 C122.589,189.525 129.939,187.875 137.139,189.975 C137.139,189.975 148.539,191.325 150.489,200.625 C150.789,202.575 148.389,202.875 148.389,204.525 C148.389,206.175 147.339,207.225 145.089,206.175 C144.339,208.875 142.389,208.875 140.739,207.825 C140.139,209.775 139.239,209.925 136.689,208.875 C135.039,208.125 133.839,205.725 131.739,204.075 C129.639,202.425 126.339,200.775 125.289,200.775 z" fill="#FCB692"/>
        <path d="M125.139,202.125 C125.739,202.425 126.039,202.875 126.639,203.325 C129.639,205.425 128.289,209.175 128.289,209.175 C128.289,209.175 125.439,209.775 121.989,208.125 C119.889,207.075 113.589,204.075 112.539,201.375 C112.239,197.625 114.489,193.575 118.539,191.625 C122.589,189.525 129.939,187.875 137.139,189.975 C137.139,189.975 148.539,191.325 150.489,200.625 C150.789,202.575 148.389,202.875 148.389,204.525 C148.389,206.175 147.339,207.225 145.089,206.175 C144.339,208.875 142.389,208.875 140.739,207.825 C140.139,209.775 139.239,209.925 136.689,208.875 C135.039,208.125 133.839,205.725 131.739,204.075 C129.639,202.425 126.339,200.775 125.289,200.775 z" fill-opacity="0" stroke="#000000" stroke-width="2.25" stroke-linecap="round" stroke-linejoin="round" stroke-miterlimit="10"/>
      </g>
      <path d="M129.939,195.525 C132.639,195.825 140.889,200.625 140.589,207.825" fill-opacity="0" stroke="#000000" stroke-width="2.25" stroke-linecap="round" stroke-linejoin="round" stroke-miterlimit="10" id="path920"/>
      <path d="M135.339,193.875 C137.439,194.475 145.389,200.025 144.939,206.175" fill-opacity="0" stroke="#000000" stroke-width="2.25" stroke-linecap="round" stroke-linejoin="round" stroke-miterlimit="10" id="path922"/>
      <path d="M142.239,194.025 C142.239,194.025 148.089,198.525 148.389,204.375" fill-opacity="0" stroke="#000000" stroke-width="2.25" stroke-linecap="round" stroke-linejoin="round" stroke-miterlimit="10" id="path924"/>
    </g>
    <g id="g932">
      <g id="path928">
        <path d="M138.489,61.425 C141.489,53.925 149.889,54.075 152.289,67.875 C154.689,81.675 148.389,89.175 142.389,91.125 z" fill="#FCB692"/>
        <path d="M138.489,61.425 C141.489,53.925 149.889,54.075 152.289,67.875 C154.689,81.675 148.389,89.175 142.389,91.125 z" fill-opacity="0" stroke="#000000" stroke-width="2.25" stroke-linecap="round" stroke-linejoin="round" stroke-miterlimit="10"/>
      </g>
      <path d="M141.039,71.325 C142.089,64.425 145.539,59.475 148.989,66.375" fill-opacity="0" stroke="#000000" stroke-width="2.25" stroke-linecap="round" stroke-linejoin="round" stroke-miterlimit="10" id="path930"/>
    </g>
    <g id="path934">
      <path d="M7.389,85.725 C3.939,80.775 1.389,59.625 7.839,45.525 C13.689,32.925 21.189,27.375 24.189,24.825 C34.539,9.075 53.289,1.125 74.139,1.125 C81.489,1.125 100.389,6.075 106.839,11.475 C120.189,16.875 128.139,24.825 135.039,40.125 C136.989,41.175 141.939,48.975 140.439,63.825 C139.989,65.775 18.189,110.925 18.189,110.925 z" fill="#26120B"/>
      <path d="M7.389,85.725 C3.939,80.775 1.389,59.625 7.839,45.525 C13.689,32.925 21.189,27.375 24.189,24.825 C34.539,9.075 53.289,1.125 74.139,1.125 C81.489,1.125 100.389,6.075 106.839,11.475 C120.189,16.875 128.139,24.825 135.039,40.125 C136.989,41.175 141.939,48.975 140.439,63.825 C139.989,65.775 18.189,110.925 18.189,110.925 z" fill-opacity="0" stroke="#000000" stroke-width="2.25" stroke-linecap="round" stroke-linejoin="round" stroke-miterlimit="10"/>
    </g>
    <g id="path936">
      <path d="M49.989,31.275 C49.989,31.275 48.939,45.675 48.489,49.125 C53.439,46.575 62.289,33.825 62.289,33.825 C63.339,38.775 58.389,46.725 55.839,48.675 C55.839,48.675 63.339,46.725 64.689,46.125 C88.089,43.125 98.889,25.875 100.839,19.875 C109.689,23.325 123.039,32.775 123.039,32.775 C135.339,42.225 143.289,67.425 144.339,75.375 C148.689,109.875 126.939,134.025 89.589,140.475 C49.539,147.375 31.989,125.325 24.489,118.425 C15.039,121.425 3.639,107.025 1.689,99.675 C-0.261,92.325 3.189,86.775 7.089,85.875 C12.489,85.425 14.589,85.875 16.989,93.225 C16.989,93.225 26.439,109.575 28.389,110.025 C25.089,102.675 18.489,81.825 24.639,59.775 C24.639,59.775 26.889,63.975 27.339,65.475 C32.589,62.475 47.889,37.275 49.989,31.275 z" fill="#FCB692"/>
      <path d="M49.989,31.275 C49.989,31.275 48.939,45.675 48.489,49.125 C53.439,46.575 62.289,33.825 62.289,33.825 C63.339,38.775 58.389,46.725 55.839,48.675 C55.839,48.675 63.339,46.725 64.689,46.125 C88.089,43.125 98.889,25.875 100.839,19.875 C109.689,23.325 123.039,32.775 123.039,32.775 C135.339,42.225 143.289,67.425 144.339,75.375 C148.689,109.875 126.939,134.025 89.589,140.475 C49.539,147.375 31.989,125.325 24.489,118.425 C15.039,121.425 3.639,107.025 1.689,99.675 C-0.261,92.325 3.189,86.775 7.089,85.875 C12.489,85.425 14.589,85.875 16.989,93.225 C16.989,93.225 26.439,109.575 28.389,110.025 C25.089,102.675 18.489,81.825 24.639,59.775 C24.639,59.775 26.889,63.975 27.339,65.475 C32.589,62.475 47.889,37.275 49.989,31.275 z" fill-opacity="0" stroke="#000000" stroke-width="2.25" stroke-linecap="round" stroke-linejoin="round" stroke-miterlimit="10"/>
    </g>
    <g id="path938">
      <path d="M44.439,43.725 C42.039,40.725 34.989,45.675 39.489,57.075" fill="#FCB692"/>
      <path d="M44.439,43.725 C42.039,40.725 34.989,45.675 39.489,57.075" fill-opacity="0" stroke="#000000" stroke-width="2.25" stroke-linecap="round" stroke-linejoin="round" stroke-miterlimit="10"/>
    </g>
    <g id="path940">
      <path d="M111.339,29.775 C111.789,23.775 119.289,26.325 120.789,35.175" fill="#FCB692"/>
      <path d="M111.339,29.775 C111.789,23.775 119.289,26.325 120.789,35.175" fill-opacity="0" stroke="#000000" stroke-width="2.25" stroke-linecap="round" stroke-linejoin="round" stroke-miterlimit="10"/>
    </g>
    <path d="M81.039,22.425 C82.539,25.425 78.639,38.775 64.689,46.125" fill-opacity="0" stroke="#000000" stroke-width="2.25" stroke-linecap="round" stroke-linejoin="round" stroke-miterlimit="10" id="path942"/>
    <path d="M99.489,13.425 C99.939,14.925 101.439,16.875 99.939,21.825" fill-opacity="0" stroke="#000000" stroke-width="2.25" stroke-linecap="round" stroke-linejoin="round" stroke-miterlimit="10" id="path944"/>
    <path d="M90.939,69.975 C92.889,70.425 98.439,70.425 98.439,70.425 C98.439,70.425 97.989,71.925 96.039,74.325" fill-opacity="0" stroke="#000000" stroke-width="2.25" stroke-linecap="round" stroke-linejoin="round" stroke-miterlimit="10" id="path946"/>
    <path d="M65.139,70.875 C65.139,73.875 62.739,76.275 59.739,76.275 C56.739,76.275 54.339,73.875 54.339,70.875 C54.339,67.875 56.739,65.475 59.739,65.475 C62.739,65.625 65.139,68.025 65.139,70.875 z" fill="#000000" id="path948"/>
    <path d="M121.539,58.575 C121.539,61.575 119.139,63.975 116.139,63.975 C113.139,63.975 110.739,61.575 110.739,58.575 C110.739,55.575 113.139,53.175 116.139,53.175 C119.139,53.175 121.539,55.575 121.539,58.575 z" fill="#000000" id="path950"/>
    <path d="M62.739,86.925 C62.889,91.725 57.789,95.925 51.189,96.375 C44.589,96.825 39.189,93.225 38.889,88.425 C38.739,83.625 43.839,79.425 50.439,78.975 C57.039,78.525 62.439,82.125 62.739,86.925 z" fill="#FB8360" id="path952"/>
    <path d="M56.289,83.625 C56.289,85.575 54.639,87.075 52.689,87.075 C50.739,87.075 49.089,85.575 49.089,83.625 C49.089,81.675 50.739,80.175 52.689,80.175 C54.639,80.175 56.289,81.825 56.289,83.625 z" fill="#FFFFFF" id="path954"/>
    <path d="M139.389,71.025 C139.539,75.825 134.439,80.025 127.839,80.475 C121.239,80.925 115.839,77.325 115.539,72.525 C115.389,67.725 120.489,63.525 127.089,63.075 C133.689,62.625 139.239,66.225 139.389,71.025 z" fill="#FB8360" id="path956"/>
    <path d="M132.939,67.875 C132.939,69.825 131.289,71.325 129.339,71.325 C127.389,71.325 125.739,69.825 125.739,67.875 C125.739,65.925 127.389,64.425 129.339,64.425 C131.439,64.425 132.939,65.925 132.939,67.875 z" fill="#FFFFFF" id="path958"/>
    <path d="M7.989,98.475 C6.339,94.275 7.989,89.025 16.239,93.075" fill-opacity="0" stroke="#000000" stroke-width="2.25" stroke-linecap="round" stroke-linejoin="round" stroke-miterlimit="10" id="path960"/>
    <path d="M18.789,98.175 C18.789,98.175 14.589,101.025 15.939,102.375 C17.139,103.575 21.339,106.575 21.339,106.575" fill-opacity="0" stroke="#000000" stroke-width="2.25" stroke-linecap="round" stroke-linejoin="round" stroke-miterlimit="10" id="path962"/>
    <path d="M90.489,119.325 C79.089,119.325 75.639,104.925 74.139,93.525 C79.089,95.025 96.939,93.525 106.389,90.075 C104.889,103.425 100.689,119.325 90.489,119.325 z" fill="#000000" id="path964"/>
    <path d="M142.989,70.425 C144.639,70.875 145.839,71.325 146.739,72.975" fill-opacity="0" stroke="#000000" stroke-width="2.25" stroke-linecap="round" stroke-linejoin="round" stroke-miterlimit="10" id="path966"/>
    <g id="g980">
      <g id="path968">
        <path d="M275.739,135.225 C273.039,135.525 267.189,142.425 271.689,154.125 C276.189,165.825 277.089,168.975 277.539,170.325 C277.989,171.675 278.289,175.125 278.289,175.125 L275.139,177.075 L269.139,180.675 L265.089,183.825 C266.589,184.725 271.989,190.575 270.639,195.975 C271.539,197.775 292.089,197.025 298.539,188.775 C306.189,178.875 298.239,159.825 294.939,153.675 C290.589,145.125 284.289,134.325 275.739,135.225 z" fill="#80C41C"/>
        <path d="M275.739,135.225 C273.039,135.525 267.189,142.425 271.689,154.125 C276.189,165.825 277.089,168.975 277.539,170.325 C277.989,171.675 278.289,175.125 278.289,175.125 L275.139,177.075 L269.139,180.675 L265.089,183.825 C266.589,184.725 271.989,190.575 270.639,195.975 C271.539,197.775 292.089,197.025 298.539,188.775 C306.189,178.875 298.239,159.825 294.939,153.675 C290.589,145.125 284.289,134.325 275.739,135.225 z" fill-opacity="0" stroke="#000000" stroke-width="2.25" stroke-linecap="round" stroke-linejoin="round" stroke-miterlimit="10"/>
      </g>
      <g id="g978">
        <g id="path970">
          <path d="M273.339,194.625 C271.089,195.525 265.689,195.975 265.689,195.975 C265.239,197.775 257.589,200.925 253.539,200.025 L247.689,203.625 C247.689,203.625 243.189,204.975 243.189,203.625 C243.189,202.275 244.089,200.475 244.089,200.475 C244.089,200.475 240.039,204.075 238.689,203.175 C237.339,202.275 240.039,198.225 240.039,198.225 C240.039,198.225 236.889,201.825 235.089,200.925 C233.289,200.025 234.639,197.775 235.539,196.425 C233.739,196.425 231.489,196.425 231.489,193.725 C231.489,191.025 239.139,188.775 243.639,186.075 C248.139,183.375 256.689,186.075 260.739,186.975 C260.739,186.975 265.689,183.825 267.039,183.825 C269.289,183.375 275.139,189.675 273.339,194.625 z" fill="#FCB692"/>
          <path d="M273.339,194.625 C271.089,195.525 265.689,195.975 265.689,195.975 C265.239,197.775 257.589,200.925 253.539,200.025 L247.689,203.625 C247.689,203.625 243.189,204.975 243.189,203.625 C243.189,202.275 244.089,200.475 244.089,200.475 C244.089,200.475 240.039,204.075 238.689,203.175 C237.339,202.275 240.039,198.225 240.039,198.225 C240.039,198.225 236.889,201.825 235.089,200.925 C233.289,200.025 234.639,197.775 235.539,196.425 C233.739,196.425 231.489,196.425 231.489,193.725 C231.489,191.025 239.139,188.775 243.639,186.075 C248.139,183.375 256.689,186.075 260.739,186.975 C260.739,186.975 265.689,183.825 267.039,183.825 C269.289,183.375 275.139,189.675 273.339,194.625 z" fill-opacity="0" stroke="#000000" stroke-width="2.25" stroke-linecap="round" stroke-linejoin="round" stroke-miterlimit="10"/>
        </g>
        <path d="M249.939,195.525 C249.939,195.525 244.989,198.675 244.089,200.475" fill-opacity="0" stroke="#000000" stroke-width="2.25" stroke-linecap="round" stroke-linejoin="round" stroke-miterlimit="10" id="path972"/>
        <path d="M246.339,192.375 C246.339,192.375 241.389,196.875 240.039,198.225" fill-opacity="0" stroke="#000000" stroke-width="2.25" stroke-linecap="round" stroke-linejoin="round" stroke-miterlimit="10" id="path974"/>
        <path d="M244.539,190.125 C243.189,190.125 236.889,193.275 235.539,196.425" fill-opacity="0" stroke="#000000" stroke-width="2.25" stroke-linecap="round" stroke-linejoin="round" stroke-miterlimit="10" id="path976"/>
      </g>
    </g>
    <path d="M102.789,107.025 C100.239,114.075 96.339,119.325 90.489,119.325 C79.089,119.325 75.639,104.925 74.139,93.525 C77.889,94.575 88.689,94.125 97.989,92.325 C98.889,93.525 102.639,103.275 102.789,107.025 z" fill="#FD341F" id="path982"/>
    <path d="M75.339,100.425 C74.889,98.175 74.439,95.775 74.139,93.675 C79.089,95.175 96.939,93.675 106.389,90.225 C106.239,91.575 106.089,92.925 105.789,94.275 C105.789,94.725 105.639,95.175 105.639,95.625 C101.439,98.025 85.839,102.225 75.339,100.425 z" fill="#FFFFFF" id="path984"/>
    <path d="M90.489,119.325 C79.089,119.325 75.639,104.925 74.139,93.525 C79.089,95.025 96.939,93.525 106.389,90.075 C104.889,103.425 100.689,119.325 90.489,119.325 z" fill-opacity="0" stroke="#000000" stroke-width="2.25" stroke-linecap="round" stroke-linejoin="round" stroke-miterlimit="10" id="path986"/>
    <path d="M74.139,90.825 C74.139,90.825 72.639,94.125 70.839,94.875" fill-opacity="0" stroke="#000000" stroke-width="2.25" stroke-linecap="round" stroke-linejoin="round" stroke-miterlimit="10" id="path988"/>
    <path d="M105.339,86.325 L108.339,91.575" fill-opacity="0" stroke="#000000" stroke-width="2.25" stroke-linecap="round" stroke-linejoin="round" stroke-miterlimit="10" id="line990"/>
    <path d="M24.639,118.425 L21.039,118.875 L22.539,112.425 L25.539,118.875" fill="#000000" id="polyline992"/>
    <path d="M83.139,140.925 L70.089,141.375 L62.589,140.925 L58.539,145.875 z" fill="#000000" id="polygon994"/>
  </g>
  <g id="g1053">
    <g id="g1001">
      <g id="polygon997">
        <path d="M126.039,219.225 L127.389,226.575 L130.239,227.025 L127.839,219.225 z" fill="#E5E5E5"/>
        <path d="M126.039,219.225 L127.389,226.575 L130.239,227.025 L127.839,219.225 z" fill-opacity="0" stroke="#000000" stroke-width="1.5" stroke-linecap="round" stroke-linejoin="round" stroke-miterlimit="10"/>
      </g>
      <g id="polygon999">
        <path d="M128.739,220.575 L130.239,227.025 L213.789,211.275 L211.839,206.175 z" fill="#B3B3B3"/>
        <path d="M128.739,220.575 L130.239,227.025 L213.789,211.275 L211.839,206.175 z" fill-opacity="0" stroke="#000000" stroke-width="1.5" stroke-linecap="round" stroke-linejoin="round" stroke-miterlimit="10"/>
      </g>
    </g>
    <g id="g1009">
      <g id="polygon1003">
        <path d="M104.739,207.525 L134.889,215.475 L231.339,197.775 L198.489,189.975 z" fill="#E5E5E5"/>
        <path d="M104.739,207.525 L134.889,215.475 L231.339,197.775 L198.489,189.975 z" fill-opacity="0" stroke="#000000" stroke-width="2.25" stroke-linecap="round" stroke-linejoin="round" stroke-miterlimit="10"/>
      </g>
      <g id="polygon1005">
        <path d="M134.889,215.475 L104.739,207.525 L104.739,213.075 L135.339,222.375 z" fill="#F2F2F2"/>
        <path d="M134.889,215.475 L104.739,207.525 L104.739,213.075 L135.339,222.375 z" fill-opacity="0" stroke="#000000" stroke-width="2.25" stroke-linecap="round" stroke-linejoin="round" stroke-miterlimit="10"/>
      </g>
      <g id="polygon1007">
        <path d="M231.339,197.775 L134.889,215.475 L135.339,222.375 L231.789,203.325 z" fill="#B3B3B3"/>
        <path d="M231.339,197.775 L134.889,215.475 L135.339,222.375 L231.789,203.325 z" fill-opacity="0" stroke="#000000" stroke-width="2.25" stroke-linecap="round" stroke-linejoin="round" stroke-miterlimit="10"/>
      </g>
    </g>
    <g id="path1011">
      <path d="M189.189,209.475 C187.839,210.375 184.539,215.925 185.439,217.425 C186.339,218.775 200.289,225.375 205.839,226.725 C206.889,227.025 209.889,228.375 212.739,228.075 C225.939,226.725 253.089,219.225 253.089,219.225 L250.839,210.825 C250.839,210.825 191.439,207.075 189.189,209.475 z" fill="#333333"/>
      <path d="M189.189,209.475 C187.839,210.375 184.539,215.925 185.439,217.425 C186.339,218.775 200.289,225.375 205.839,226.725 C206.889,227.025 209.889,228.375 212.739,228.075 C225.939,226.725 253.089,219.225 253.089,219.225 L250.839,210.825 C250.839,210.825 191.439,207.075 189.189,209.475 z" fill-opacity="0" stroke="#000000" stroke-width="2.25" stroke-linecap="round" stroke-linejoin="round" stroke-miterlimit="10"/>
    </g>
    <g id="path1013">
      <path d="M210.939,220.575 C216.489,220.575 251.289,213.675 251.289,213.675 C251.739,212.775 250.839,210.825 250.839,210.825 C250.839,210.825 243.939,204.825 238.839,203.325 C233.739,201.975 223.989,201.525 212.439,203.325 C208.239,203.925 186.939,207.075 189.189,211.725 C190.989,214.125 202.089,219.675 210.939,220.575 z" fill="#666666"/>
      <path d="M210.939,220.575 C216.489,220.575 251.289,213.675 251.289,213.675 C251.739,212.775 250.839,210.825 250.839,210.825 C250.839,210.825 243.939,204.825 238.839,203.325 C233.739,201.975 223.989,201.525 212.439,203.325 C208.239,203.925 186.939,207.075 189.189,211.725 C190.989,214.125 202.089,219.675 210.939,220.575 z" fill-opacity="0" stroke="#000000" stroke-width="2.25" stroke-linecap="round" stroke-linejoin="round" stroke-miterlimit="10"/>
    </g>
    <g id="path1015">
      <path d="M263.439,183.375 C263.439,183.375 157.239,202.425 153.489,202.875 C149.739,203.325 145.089,199.125 145.089,195.525 C145.089,195.525 149.289,106.425 149.739,102.675 C150.189,98.925 155.289,95.325 156.639,95.325 C166.389,93.525 265.239,81.825 267.939,81.375 C270.789,80.925 275.889,84.225 275.289,87.375 C274.839,90.675 268.389,176.025 268.389,176.025 C268.089,178.275 268.089,181.575 263.439,183.375 z" fill="#666666"/>
      <path d="M263.439,183.375 C263.439,183.375 157.239,202.425 153.489,202.875 C149.739,203.325 145.089,199.125 145.089,195.525 C145.089,195.525 149.289,106.425 149.739,102.675 C150.189,98.925 155.289,95.325 156.639,95.325 C166.389,93.525 265.239,81.825 267.939,81.375 C270.789,80.925 275.889,84.225 275.289,87.375 C274.839,90.675 268.389,176.025 268.389,176.025 C268.089,178.275 268.089,181.575 263.439,183.375 z" fill-opacity="0" stroke="#000000" stroke-width="2.25" stroke-linecap="round" stroke-linejoin="round" stroke-miterlimit="10"/>
    </g>
    <g id="path1017">
      <path d="M171.939,195.975 C171.939,195.975 159.939,198.825 156.639,198.825 C153.339,198.825 150.639,196.575 150.639,195.075 C150.639,193.725 155.289,110.625 155.739,107.325 C156.189,104.025 157.989,102.225 159.939,100.875 C163.689,100.875 268.989,86.925 270.789,86.925 C272.589,86.475 274.989,89.775 275.889,91.575 C275.889,97.125 268.989,176.025 268.989,176.025 C267.189,177.825 265.689,179.775 262.989,180.675 C261.039,181.275 256.389,182.025 253.689,182.325 C252.489,182.475 252.339,182.025 252.339,182.025 L255.639,171.825 L178.539,184.875 L173.439,195.075 z" fill="#666666"/>
      <path d="M171.939,195.975 C171.939,195.975 159.939,198.825 156.639,198.825 C153.339,198.825 150.639,196.575 150.639,195.075 C150.639,193.725 155.289,110.625 155.739,107.325 C156.189,104.025 157.989,102.225 159.939,100.875 C163.689,100.875 268.989,86.925 270.789,86.925 C272.589,86.475 274.989,89.775 275.889,91.575 C275.889,97.125 268.989,176.025 268.989,176.025 C267.189,177.825 265.689,179.775 262.989,180.675 C261.039,181.275 256.389,182.025 253.689,182.325 C252.489,182.475 252.339,182.025 252.339,182.025 L255.639,171.825 L178.539,184.875 L173.439,195.075 z" fill-opacity="0" stroke="#000000" stroke-width="2.25" stroke-linecap="round" stroke-linejoin="round" stroke-miterlimit="10"/>
    </g>
    <path d="M183.039,116.625 C180.789,116.625 177.039,118.425 176.589,122.175 C176.139,125.925 173.289,176.925 173.289,176.925 C173.289,180.675 178.839,181.125 180.789,181.125 C182.739,181.125 255.039,169.575 255.039,169.575 C257.889,169.125 259.239,167.325 259.689,164.475 C260.139,161.625 263.889,110.175 263.889,110.175 C263.889,107.325 261.039,105.525 257.439,106.425 C253.689,107.325 183.039,116.625 183.039,116.625 z" fill-opacity="0" stroke="#000000" stroke-width="2.25" stroke-linecap="round" stroke-linejoin="round" stroke-miterlimit="10" id="path1019"/>
    <g id="path1021">
      <path d="M200.289,177.375 L239.739,170.925 C239.739,170.925 241.989,162.525 242.589,161.175 C243.039,159.825 241.689,159.375 241.689,159.375 C241.689,159.375 203.589,164.925 202.239,165.375 C200.739,165.825 199.839,176.025 200.289,177.375 z" fill="#333333"/>
      <path d="M200.289,177.375 L239.739,170.925 C239.739,170.925 241.989,162.525 242.589,161.175 C243.039,159.825 241.689,159.375 241.689,159.375 C241.689,159.375 203.589,164.925 202.239,165.375 C200.739,165.825 199.839,176.025 200.289,177.375 z" fill-opacity="0" stroke="#000000" stroke-width="2.25" stroke-linecap="round" stroke-linejoin="round" stroke-miterlimit="10"/>
    </g>
    <path d="M163.539,102.675 C164.889,103.575 178.839,113.775 178.839,113.775" fill-opacity="0" stroke="#000000" stroke-width="2.25" stroke-linecap="round" stroke-linejoin="round" stroke-miterlimit="10" id="path1023"/>
    <path d="M160.839,108.225 C160.839,108.225 171.939,118.875 173.439,119.775 L172.089,118.875" fill-opacity="0" stroke="#000000" stroke-width="2.25" stroke-linecap="round" stroke-linejoin="round" stroke-miterlimit="10" id="path1025"/>
    <path d="M272.139,90.675 C272.139,90.675 266.589,104.175 263.739,105.975" fill-opacity="0" stroke="#000000" stroke-width="2.25" stroke-linecap="round" stroke-linejoin="round" stroke-miterlimit="10" id="path1027"/>
    <path d="M272.589,98.925 C272.589,98.925 268.839,107.325 266.139,110.475" fill-opacity="0" stroke="#000000" stroke-width="2.25" stroke-linecap="round" stroke-linejoin="round" stroke-miterlimit="10" id="path1029"/>
    <path d="M171.939,181.575 C171.939,182.925 157.989,194.625 154.239,196.425" fill-opacity="0" stroke="#000000" stroke-width="2.25" stroke-linecap="round" stroke-linejoin="round" stroke-miterlimit="10" id="path1031"/>
    <path d="M260.589,170.025 C260.589,170.025 265.239,172.875 266.589,175.575" fill-opacity="0" stroke="#000000" stroke-width="2.25" stroke-linecap="round" stroke-linejoin="round" stroke-miterlimit="10" id="path1033"/>
    <g id="path1035">
      <path d="M205.839,164.925 L204.939,171.375 C208.239,170.925 210.939,170.925 212.439,172.275 C213.789,173.625 214.689,176.925 214.689,179.175 C214.689,181.425 215.139,215.325 215.139,215.325 L219.789,217.125 L226.689,209.625 L220.239,163.725 z" fill="#999999"/>
      <path d="M205.839,164.925 L204.939,171.375 C208.239,170.925 210.939,170.925 212.439,172.275 C213.789,173.625 214.689,176.925 214.689,179.175 C214.689,181.425 215.139,215.325 215.139,215.325 L219.789,217.125 L226.689,209.625 L220.239,163.725 z" fill-opacity="0" stroke="#000000" stroke-width="2.25" stroke-linecap="round" stroke-linejoin="round" stroke-miterlimit="10"/>
    </g>
    <path d="M177.039,184.425 C177.039,184.425 164.439,195.525 156.639,198.825" fill-opacity="0" stroke="#000000" stroke-width="2.25" stroke-linecap="round" stroke-linejoin="round" stroke-miterlimit="10" id="path1037"/>
    <g id="path1039">
      <path d="M205.839,164.925 C205.839,164.925 213.789,165.825 216.039,167.775 C218.289,169.575 218.889,172.875 218.889,175.725 C218.889,178.575 219.789,217.425 219.789,217.425 L240.639,213.675 L239.739,170.925 C239.739,165.825 237.939,163.425 235.989,162.525 C234.189,161.625 229.539,161.175 229.539,161.175 z" fill="#666666"/>
      <path d="M205.839,164.925 C205.839,164.925 213.789,165.825 216.039,167.775 C218.289,169.575 218.889,172.875 218.889,175.725 C218.889,178.575 219.789,217.425 219.789,217.425 L240.639,213.675 L239.739,170.925 C239.739,165.825 237.939,163.425 235.989,162.525 C234.189,161.625 229.539,161.175 229.539,161.175 z" fill-opacity="0" stroke="#000000" stroke-width="2.25" stroke-linecap="round" stroke-linejoin="round" stroke-miterlimit="10"/>
    </g>
    <path d="M124.689,207.075 L136.689,210.825" fill-opacity="0" stroke="#000000" stroke-width="1.5" stroke-linecap="round" stroke-linejoin="round" stroke-miterlimit="10" id="line1041"/>
    <path d="M132.039,206.175 L143.139,209.475" fill-opacity="0" stroke="#000000" stroke-width="1.5" stroke-linecap="round" stroke-linejoin="round" stroke-miterlimit="10" id="line1043"/>
    <path d="M139.089,204.375 L150.639,208.425" fill-opacity="0" stroke="#000000" stroke-width="1.5" stroke-linecap="round" stroke-linejoin="round" stroke-miterlimit="10" id="line1045"/>
    <path d="M120.489,207.975 L143.139,203.775" fill-opacity="0" stroke="#000000" stroke-width="1.5" stroke-linecap="round" stroke-linejoin="round" stroke-miterlimit="10" id="line1047"/>
    <path d="M126.039,210.375 L147.339,205.275" fill-opacity="0" stroke="#000000" stroke-width="1.5" stroke-linecap="round" stroke-linejoin="round" stroke-miterlimit="10" id="line1049"/>
    <path d="M133.389,211.725 L157.089,207.525" fill-opacity="0" stroke="#000000" stroke-width="1.5" stroke-linecap="round" stroke-linejoin="round" stroke-miterlimit="10" id="line1051"/>
  </g>
</svg>
